<svg xmlns="http://www.w3.org/2000/svg" width="24" height="24" fill="none" viewBox="0 0 24 24" id="target">
  <path fill="#AAA" fill-rule="evenodd" d="M5.75 12C5.75 12.4142 5.41421 12.75 5 12.75L2 12.75C1.58579 12.75 1.25 12.4142 1.25 12 1.25 11.5858 1.58579 11.25 2 11.25L5 11.25C5.41421 11.25 5.75 11.5858 5.75 12zM22.75 12C22.75 12.4142 22.4142 12.75 22 12.75L19 12.75C18.5858 12.75 18.25 12.4142 18.25 12 18.25 11.5858 18.5858 11.25 19 11.25L22 11.25C22.4142 11.25 22.75 11.5858 22.75 12zM12 18.25C12.4142 18.25 12.75 18.5858 12.75 19L12.75 22C12.75 22.4142 12.4142 22.75 12 22.75 11.5858 22.75 11.25 22.4142 11.25 22L11.25 19C11.25 18.5858 11.5858 18.25 12 18.25zM12 1.25C12.4142 1.25 12.75 1.58579 12.75 2L12.75 5C12.75 5.41421 12.4142 5.75 12 5.75 11.5858 5.75 11.25 5.41421 11.25 5L11.25 2C11.25 1.58579 11.5858 1.25 12 1.25z" clip-rule="evenodd"></path>
  <path fill="#111" fill-rule="evenodd" d="M12 2.75C6.89137 2.75 2.75 6.89137 2.75 12C2.75 17.1086 6.89137 21.25 12 21.25C17.1086 21.25 21.25 17.1086 21.25 12C21.25 6.89137 17.1086 2.75 12 2.75ZM1.25 12C1.25 6.06294 6.06294 1.25 12 1.25C17.9371 1.25 22.75 6.06294 22.75 12C22.75 17.9371 17.9371 22.75 12 22.75C6.06294 22.75 1.25 17.9371 1.25 12Z" clip-rule="evenodd"></path>
  <path fill="#111" fill-rule="evenodd" d="M12 9.25C12.4142 9.25 12.75 9.58579 12.75 10L12.75 11.25H14C14.4142 11.25 14.75 11.5858 14.75 12C14.75 12.4142 14.4142 12.75 14 12.75H12.75V14C12.75 14.4142 12.4142 14.75 12 14.75C11.5858 14.75 11.25 14.4142 11.25 14V12.75H10C9.58579 12.75 9.25 12.4142 9.25 12C9.25 11.5858 9.58579 11.25 10 11.25H11.25L11.25 10C11.25 9.58579 11.5858 9.25 12 9.25Z" clip-rule="evenodd"></path>
</svg>
